# xmcd
#
# Track frame offsets:
#  150
#  7911
#  19704
#  31248
#  42390
#  52939
#  64804
#  76027
#  87311
#  98403
#  108791
#  119275
#  129432
#  141132
#  153301
#  163376
#  175298
#  187103
#  196633
#  209008
#  218654
#  230151
#  241156
#  253311
#  263989
#  274565
#  283999
#  295114
#  305551
#  316946
#  327115
#  337415
#
# Disc length: 4646 seconds
#
# Revision: 0
# Processed by: cddbd v1.5.2PL0 Copyright (c) Steve Scherf et al.
# Submitted via: AltoMP3_Maker 3.0
#
DISCID=ce122420
DTITLE=Various Artist - King Hillbilly, Vol. 2
DYEAR=1900
DGENRE=
TTITLE0=Jimmy Thomason - Big Deal
TTITLE1=Cowboy Copas - Hangman's Boogie
TTITLE2=Jimmie Ballard - I Want a Bowlegged Woman
TTITLE3=Bill Long - What a Waste
TTITLE4=Gene Davis - Satan's Daughter
TTITLE5=Wayne Raney - Catfish Baby
TTITLE6=Bobby Grove - No Parking Here
TTITLE7=Bobby Roberts - I'm Pulling Stakes and Leavin' You
TTITLE8=Jack Cardwell - Whiskey, Women and Loaded Dice
TTITLE9=Louie Innis - It Don't Pay to Advertise
TTITLE10=Charlie Gore - Absolutely Free
TTITLE11=Jimmy Vernon - Dog Bite Your Hide
TTITLE12=Zeb Turner - No More Nothin'
TTITLE13=Bob Newman - Greetings
TTITLE14=Billy Barton - Why Don't They Leave Her Alone
TTITLE15=Neal Burris - Please Excuse My Manners
TTITLE16=Delmore Bros - Steamboat Bill Boogie
TTITLE17=Ann Jones - A Big Fat Gal Like Me
TTITLE18=Bill Long - Your Daddy Is a Railroad Man
TTITLE19=Jimmy Ballard - She's Got Something
TTITLE20=Jack Cardwell - I'm Not Lazy, I'm Just Tired
TTITLE21=Gene Davis - Cruisin' for a Bruisin'
TTITLE22=Joe Wheeler - A Country Boy Goes to Town
TTITLE23=Jimmy Thomason - Daddy Why
TTITLE24=Delbert Barker - How about a Handout
TTITLE25=Louie Innis - What's He Got
TTITLE26=Charlie Gore - Mabel Mabel
TTITLE27=Lattie Moore - Pull Down the Blinds
TTITLE28=Zeb Turner - Oh She's Gone, Gone, Gone
TTITLE29=Bobby Grove - Whistle of the Gravy Train
TTITLE30=Bobby Roberts - I'm Gonna Comb You outta My Hair
TTITLE31=Bob Newman - Rover Rover
EXTD=
EXTT0=
EXTT1=
EXTT2=
EXTT3=
EXTT4=
EXTT5=
EXTT6=
EXTT7=
EXTT8=
EXTT9=
EXTT10=
EXTT11=
EXTT12=
EXTT13=
EXTT14=
EXTT15=
EXTT16=
EXTT17=
EXTT18=
EXTT19=
EXTT20=
EXTT21=
EXTT22=
EXTT23=
EXTT24=
EXTT25=
EXTT26=
EXTT27=
EXTT28=
EXTT29=
EXTT30=
EXTT31=
PLAYORDER=
